<svg width="10" height="14" viewBox="0 0 10 14" fill="none" xmlns="http://www.w3.org/2000/svg">
<path d="M2.05027 2.05239C3.34084 0.918925 5.26773 0.648483 6.85459 1.26692C9.12749 2.08222 10.4419 4.78067 9.81155 7.08539C9.53514 8.04386 8.99823 8.89496 8.4832 9.74009C8.01391 8.93274 7.35172 8.2626 6.53443 7.80723C7.19662 7.11323 7.64404 6.0772 7.18866 5.15054C6.6438 3.68697 4.49618 3.25745 3.48003 4.47443C2.52553 5.41302 2.80194 6.94818 3.68287 7.83308C2.86756 8.2288 2.24515 8.90291 1.86335 9.7202C0.956577 8.5927 0.23076 7.2047 0.369957 5.71329C0.294393 4.30541 1.01623 2.96911 2.05027 2.05239Z" fill="#3869EB"/>
<path d="M3.63525 11.9334C3.93155 10.5733 4.12046 9.19324 4.39687 7.8291C4.86616 7.83109 5.33347 7.83109 5.80276 7.83109C6.0911 9.18529 6.29791 10.5554 6.57233 11.9136C6.09508 12.3491 5.71527 13.0053 5.10478 13.226C4.50425 12.9933 4.12046 12.353 3.63525 11.9334Z" fill="#3869EB"/>
</svg>
